<mxfile host="app.diagrams.net" modified="2021-10-13T21:39:58.010Z" agent="5.0 (Windows NT 10.0; Win64; x64) AppleWebKit/537.36 (KHTML, like Gecko) Chrome/94.0.4606.81 Safari/537.36" etag="76DYZZZBDITp6fCsz423" version="15.5.2" type="github" pages="5">
  <diagram id="F9wKW0IKmhIhB6gjWlol" name="Page-1">
    <mxGraphModel dx="1043" dy="624" grid="0" gridSize="10" guides="1" tooltips="1" connect="1" arrows="1" fold="1" page="0" pageScale="1" pageWidth="850" pageHeight="1100" background="none" math="0" shadow="0">
      <root>
        <mxCell id="0" />
        <mxCell id="1" parent="0" />
        <mxCell id="YifGCEow-8mqi7TnjXJz-2" value="Start" style="strokeWidth=2;html=1;shape=mxgraph.flowchart.start_1;whiteSpace=wrap;" parent="1" vertex="1">
          <mxGeometry x="310" y="50" width="100" height="60" as="geometry" />
        </mxCell>
        <mxCell id="YifGCEow-8mqi7TnjXJz-3" value="" style="shape=singleArrow;direction=south;whiteSpace=wrap;html=1;" parent="1" vertex="1">
          <mxGeometry x="350" y="110" width="20" height="30" as="geometry" />
        </mxCell>
        <mxCell id="YifGCEow-8mqi7TnjXJz-4" value="Login into the banking System" style="rounded=0;whiteSpace=wrap;html=1;" parent="1" vertex="1">
          <mxGeometry x="300" y="140" width="120" height="60" as="geometry" />
        </mxCell>
        <mxCell id="YifGCEow-8mqi7TnjXJz-5" value="" style="shape=singleArrow;direction=south;whiteSpace=wrap;html=1;" parent="1" vertex="1">
          <mxGeometry x="350" y="200" width="25" height="30" as="geometry" />
        </mxCell>
        <mxCell id="YifGCEow-8mqi7TnjXJz-6" value="Transfer Option" style="rounded=0;whiteSpace=wrap;html=1;" parent="1" vertex="1">
          <mxGeometry x="302.5" y="230" width="120" height="60" as="geometry" />
        </mxCell>
        <mxCell id="YifGCEow-8mqi7TnjXJz-7" value="" style="shape=singleArrow;direction=south;whiteSpace=wrap;html=1;" parent="1" vertex="1">
          <mxGeometry x="346.25" y="290" width="27.5" height="30" as="geometry" />
        </mxCell>
        <mxCell id="YifGCEow-8mqi7TnjXJz-10" value="Enter the amount" style="rounded=0;whiteSpace=wrap;html=1;" parent="1" vertex="1">
          <mxGeometry x="300" y="320" width="120" height="60" as="geometry" />
        </mxCell>
        <mxCell id="YifGCEow-8mqi7TnjXJz-11" value="" style="shape=singleArrow;direction=south;whiteSpace=wrap;html=1;" parent="1" vertex="1">
          <mxGeometry x="346.25" y="380" width="32.5" height="30" as="geometry" />
        </mxCell>
        <mxCell id="YifGCEow-8mqi7TnjXJz-12" value="Enter the account" style="rounded=0;whiteSpace=wrap;html=1;" parent="1" vertex="1">
          <mxGeometry x="302.5" y="410" width="120" height="60" as="geometry" />
        </mxCell>
        <mxCell id="YifGCEow-8mqi7TnjXJz-13" value="" style="shape=singleArrow;direction=south;whiteSpace=wrap;html=1;" parent="1" vertex="1">
          <mxGeometry x="346.25" y="470" width="32.5" height="30" as="geometry" />
        </mxCell>
        <mxCell id="YifGCEow-8mqi7TnjXJz-14" value="Title of the Transfer" style="rounded=0;whiteSpace=wrap;html=1;" parent="1" vertex="1">
          <mxGeometry x="302.5" y="500" width="120" height="60" as="geometry" />
        </mxCell>
        <mxCell id="YifGCEow-8mqi7TnjXJz-15" value="" style="shape=singleArrow;direction=south;whiteSpace=wrap;html=1;" parent="1" vertex="1">
          <mxGeometry x="345.63" y="560" width="33.75" height="30" as="geometry" />
        </mxCell>
        <mxCell id="YifGCEow-8mqi7TnjXJz-16" value="Accepts the operation" style="rounded=0;whiteSpace=wrap;html=1;" parent="1" vertex="1">
          <mxGeometry x="302.5" y="590" width="120" height="60" as="geometry" />
        </mxCell>
        <mxCell id="YifGCEow-8mqi7TnjXJz-17" value="" style="shape=singleArrow;direction=south;whiteSpace=wrap;html=1;" parent="1" vertex="1">
          <mxGeometry x="343.74" y="650" width="32.51" height="30" as="geometry" />
        </mxCell>
        <mxCell id="YifGCEow-8mqi7TnjXJz-19" value="Account is blocked" style="rhombus;whiteSpace=wrap;html=1;" parent="1" vertex="1">
          <mxGeometry x="310" y="680" width="100" height="100" as="geometry" />
        </mxCell>
        <mxCell id="YifGCEow-8mqi7TnjXJz-20" value="" style="shape=singleArrow;whiteSpace=wrap;html=1;" parent="1" vertex="1">
          <mxGeometry x="410" y="715" width="70" height="30" as="geometry" />
        </mxCell>
        <mxCell id="YifGCEow-8mqi7TnjXJz-22" value="Rejected operation" style="rounded=0;whiteSpace=wrap;html=1;" parent="1" vertex="1">
          <mxGeometry x="480" y="700" width="120" height="60" as="geometry" />
        </mxCell>
        <mxCell id="YifGCEow-8mqi7TnjXJz-24" value="" style="shape=singleArrow;whiteSpace=wrap;html=1;" parent="1" vertex="1">
          <mxGeometry x="600" y="720" width="70" height="20" as="geometry" />
        </mxCell>
        <mxCell id="YifGCEow-8mqi7TnjXJz-26" value="Yes" style="text;html=1;strokeColor=none;fillColor=none;align=center;verticalAlign=middle;whiteSpace=wrap;rounded=0;" parent="1" vertex="1">
          <mxGeometry x="410" y="700" width="60" height="30" as="geometry" />
        </mxCell>
        <mxCell id="YifGCEow-8mqi7TnjXJz-27" value="End" style="ellipse;whiteSpace=wrap;html=1;" parent="1" vertex="1">
          <mxGeometry x="670" y="700" width="70" height="50" as="geometry" />
        </mxCell>
        <mxCell id="YifGCEow-8mqi7TnjXJz-28" value="" style="shape=singleArrow;direction=west;whiteSpace=wrap;html=1;" parent="1" vertex="1">
          <mxGeometry x="240" y="717.5" width="70" height="25" as="geometry" />
        </mxCell>
        <mxCell id="YifGCEow-8mqi7TnjXJz-30" value="No" style="text;html=1;strokeColor=none;fillColor=none;align=center;verticalAlign=middle;whiteSpace=wrap;rounded=0;" parent="1" vertex="1">
          <mxGeometry x="245" y="700" width="60" height="30" as="geometry" />
        </mxCell>
        <mxCell id="YifGCEow-8mqi7TnjXJz-31" value="It can executed" style="rhombus;whiteSpace=wrap;html=1;" parent="1" vertex="1">
          <mxGeometry x="140" y="680" width="100" height="100" as="geometry" />
        </mxCell>
        <mxCell id="YifGCEow-8mqi7TnjXJz-33" value="" style="shape=singleArrow;direction=north;whiteSpace=wrap;html=1;" parent="1" vertex="1">
          <mxGeometry x="180" y="650" width="20" height="30" as="geometry" />
        </mxCell>
        <mxCell id="YifGCEow-8mqi7TnjXJz-35" value="No" style="text;html=1;strokeColor=none;fillColor=none;align=center;verticalAlign=middle;whiteSpace=wrap;rounded=0;rotation=90;" parent="1" vertex="1">
          <mxGeometry x="180" y="650" width="60" height="30" as="geometry" />
        </mxCell>
        <mxCell id="YifGCEow-8mqi7TnjXJz-36" value="End" style="ellipse;whiteSpace=wrap;html=1;" parent="1" vertex="1">
          <mxGeometry x="160" y="620" width="60" height="30" as="geometry" />
        </mxCell>
        <mxCell id="YifGCEow-8mqi7TnjXJz-37" value="" style="shape=singleArrow;direction=south;whiteSpace=wrap;html=1;" parent="1" vertex="1">
          <mxGeometry x="175" y="780" width="30" height="40" as="geometry" />
        </mxCell>
        <mxCell id="YifGCEow-8mqi7TnjXJz-38" value="Yes" style="text;html=1;strokeColor=none;fillColor=none;align=center;verticalAlign=middle;whiteSpace=wrap;rounded=0;rotation=90;" parent="1" vertex="1">
          <mxGeometry x="175" y="780" width="60" height="30" as="geometry" />
        </mxCell>
        <mxCell id="YifGCEow-8mqi7TnjXJz-39" value="Appro. Amount of money" style="rhombus;whiteSpace=wrap;html=1;" parent="1" vertex="1">
          <mxGeometry x="140" y="820" width="100" height="100" as="geometry" />
        </mxCell>
        <mxCell id="YifGCEow-8mqi7TnjXJz-40" value="" style="shape=singleArrow;direction=west;whiteSpace=wrap;html=1;" parent="1" vertex="1">
          <mxGeometry x="90" y="857.5" width="50" height="25" as="geometry" />
        </mxCell>
        <mxCell id="YifGCEow-8mqi7TnjXJz-41" value="End" style="ellipse;whiteSpace=wrap;html=1;" parent="1" vertex="1">
          <mxGeometry x="40" y="850" width="50" height="40" as="geometry" />
        </mxCell>
        <mxCell id="YifGCEow-8mqi7TnjXJz-42" value="No" style="text;html=1;strokeColor=none;fillColor=none;align=center;verticalAlign=middle;whiteSpace=wrap;rounded=0;" parent="1" vertex="1">
          <mxGeometry x="90" y="840" width="60" height="30" as="geometry" />
        </mxCell>
        <mxCell id="YifGCEow-8mqi7TnjXJz-43" value="" style="shape=singleArrow;direction=south;whiteSpace=wrap;html=1;" parent="1" vertex="1">
          <mxGeometry x="175" y="920" width="30" height="30" as="geometry" />
        </mxCell>
        <mxCell id="YifGCEow-8mqi7TnjXJz-44" value="Executed operation" style="rounded=0;whiteSpace=wrap;html=1;" parent="1" vertex="1">
          <mxGeometry x="130" y="950" width="120" height="60" as="geometry" />
        </mxCell>
        <mxCell id="YifGCEow-8mqi7TnjXJz-45" value="Yes" style="text;html=1;strokeColor=none;fillColor=none;align=center;verticalAlign=middle;whiteSpace=wrap;rounded=0;rotation=90;" parent="1" vertex="1">
          <mxGeometry x="175" y="910" width="60" height="30" as="geometry" />
        </mxCell>
        <mxCell id="YifGCEow-8mqi7TnjXJz-48" value="" style="shape=singleArrow;whiteSpace=wrap;html=1;" parent="1" vertex="1">
          <mxGeometry x="250" y="965" width="60" height="30" as="geometry" />
        </mxCell>
        <mxCell id="YifGCEow-8mqi7TnjXJz-49" value="Display relevent Information" style="rounded=0;whiteSpace=wrap;html=1;" parent="1" vertex="1">
          <mxGeometry x="310" y="950" width="120" height="60" as="geometry" />
        </mxCell>
        <mxCell id="YifGCEow-8mqi7TnjXJz-50" value="" style="shape=singleArrow;whiteSpace=wrap;html=1;" parent="1" vertex="1">
          <mxGeometry x="430" y="960" width="50" height="40" as="geometry" />
        </mxCell>
        <mxCell id="YifGCEow-8mqi7TnjXJz-51" value="END" style="ellipse;whiteSpace=wrap;html=1;" parent="1" vertex="1">
          <mxGeometry x="480" y="960" width="60" height="40" as="geometry" />
        </mxCell>
      </root>
    </mxGraphModel>
  </diagram>
  <diagram id="rAsQHDTfLl_Ku0bperIa" name="Page-2">
    <mxGraphModel dx="1564" dy="936" grid="0" gridSize="10" guides="1" tooltips="1" connect="1" arrows="1" fold="1" page="0" pageScale="1" pageWidth="850" pageHeight="1100" math="0" shadow="1">
      <root>
        <mxCell id="s7bDI3plUleritC216_h-0" />
        <mxCell id="s7bDI3plUleritC216_h-1" parent="s7bDI3plUleritC216_h-0" />
        <mxCell id="OgNLUx5or4g087gnhACm-0" value="Start" style="ellipse;whiteSpace=wrap;html=1;rounded=0;sketch=0;" vertex="1" parent="s7bDI3plUleritC216_h-1">
          <mxGeometry x="380" y="40" width="70" height="40" as="geometry" />
        </mxCell>
        <mxCell id="OgNLUx5or4g087gnhACm-1" value="" style="shape=singleArrow;direction=south;whiteSpace=wrap;html=1;rounded=0;sketch=0;" vertex="1" parent="s7bDI3plUleritC216_h-1">
          <mxGeometry x="402.5" y="80" width="25" height="30" as="geometry" />
        </mxCell>
        <mxCell id="OgNLUx5or4g087gnhACm-2" value="Login" style="rounded=0;whiteSpace=wrap;html=1;sketch=0;" vertex="1" parent="s7bDI3plUleritC216_h-1">
          <mxGeometry x="355" y="110" width="120" height="60" as="geometry" />
        </mxCell>
        <mxCell id="OgNLUx5or4g087gnhACm-3" value="" style="shape=singleArrow;direction=south;whiteSpace=wrap;html=1;rounded=0;sketch=0;" vertex="1" parent="s7bDI3plUleritC216_h-1">
          <mxGeometry x="402.5" y="170" width="25" height="30" as="geometry" />
        </mxCell>
        <mxCell id="OgNLUx5or4g087gnhACm-5" value="Select App button" style="rounded=0;whiteSpace=wrap;html=1;sketch=0;" vertex="1" parent="s7bDI3plUleritC216_h-1">
          <mxGeometry x="355" y="200" width="120" height="60" as="geometry" />
        </mxCell>
        <mxCell id="OgNLUx5or4g087gnhACm-6" value="" style="shape=singleArrow;direction=south;whiteSpace=wrap;html=1;rounded=0;sketch=0;" vertex="1" parent="s7bDI3plUleritC216_h-1">
          <mxGeometry x="402.5" y="260" width="25" height="30" as="geometry" />
        </mxCell>
        <mxCell id="OgNLUx5or4g087gnhACm-7" value="Press Title" style="rounded=0;whiteSpace=wrap;html=1;sketch=0;" vertex="1" parent="s7bDI3plUleritC216_h-1">
          <mxGeometry x="355" y="290" width="120" height="60" as="geometry" />
        </mxCell>
        <mxCell id="OgNLUx5or4g087gnhACm-8" value="" style="shape=singleArrow;direction=south;whiteSpace=wrap;html=1;rounded=0;sketch=0;" vertex="1" parent="s7bDI3plUleritC216_h-1">
          <mxGeometry x="402.5" y="350" width="25" height="30" as="geometry" />
        </mxCell>
        <mxCell id="OgNLUx5or4g087gnhACm-9" value="Press Content" style="rounded=0;whiteSpace=wrap;html=1;sketch=0;" vertex="1" parent="s7bDI3plUleritC216_h-1">
          <mxGeometry x="355" y="380" width="120" height="60" as="geometry" />
        </mxCell>
        <mxCell id="OgNLUx5or4g087gnhACm-10" value="" style="shape=singleArrow;direction=south;whiteSpace=wrap;html=1;rounded=0;sketch=0;" vertex="1" parent="s7bDI3plUleritC216_h-1">
          <mxGeometry x="402.5" y="440" width="25" height="30" as="geometry" />
        </mxCell>
        <mxCell id="OgNLUx5or4g087gnhACm-11" value="User send application" style="rounded=0;whiteSpace=wrap;html=1;sketch=0;" vertex="1" parent="s7bDI3plUleritC216_h-1">
          <mxGeometry x="355" y="470" width="120" height="60" as="geometry" />
        </mxCell>
        <mxCell id="OgNLUx5or4g087gnhACm-12" value="" style="shape=singleArrow;direction=south;whiteSpace=wrap;html=1;rounded=0;sketch=0;" vertex="1" parent="s7bDI3plUleritC216_h-1">
          <mxGeometry x="402.5" y="530" width="25" height="30" as="geometry" />
        </mxCell>
        <mxCell id="OgNLUx5or4g087gnhACm-13" value="Decide to send the app or respond immediately" style="rhombus;whiteSpace=wrap;html=1;rounded=0;sketch=0;" vertex="1" parent="s7bDI3plUleritC216_h-1">
          <mxGeometry x="357.5" y="560" width="115" height="120" as="geometry" />
        </mxCell>
        <mxCell id="OgNLUx5or4g087gnhACm-14" value="" style="shape=singleArrow;direction=west;whiteSpace=wrap;html=1;rounded=0;sketch=0;" vertex="1" parent="s7bDI3plUleritC216_h-1">
          <mxGeometry x="320" y="610" width="37.5" height="20" as="geometry" />
        </mxCell>
        <mxCell id="OgNLUx5or4g087gnhACm-15" value="" style="shape=singleArrow;whiteSpace=wrap;html=1;rounded=0;sketch=0;" vertex="1" parent="s7bDI3plUleritC216_h-1">
          <mxGeometry x="472.5" y="610" width="37.5" height="20" as="geometry" />
        </mxCell>
        <mxCell id="OgNLUx5or4g087gnhACm-16" style="edgeStyle=orthogonalEdgeStyle;curved=0;rounded=1;sketch=0;orthogonalLoop=1;jettySize=auto;html=1;exitX=0;exitY=0;exitDx=15;exitDy=13;exitPerimeter=0;entryX=0;entryY=0;entryDx=15;entryDy=7;entryPerimeter=0;" edge="1" parent="s7bDI3plUleritC216_h-1" source="OgNLUx5or4g087gnhACm-15" target="OgNLUx5or4g087gnhACm-15">
          <mxGeometry relative="1" as="geometry" />
        </mxCell>
        <mxCell id="OgNLUx5or4g087gnhACm-17" value="No" style="text;html=1;strokeColor=none;fillColor=none;align=center;verticalAlign=middle;whiteSpace=wrap;rounded=0;sketch=0;" vertex="1" parent="s7bDI3plUleritC216_h-1">
          <mxGeometry x="308.75" y="590" width="60" height="30" as="geometry" />
        </mxCell>
        <mxCell id="OgNLUx5or4g087gnhACm-18" value="Yes" style="text;html=1;strokeColor=none;fillColor=none;align=center;verticalAlign=middle;whiteSpace=wrap;rounded=0;sketch=0;" vertex="1" parent="s7bDI3plUleritC216_h-1">
          <mxGeometry x="450" y="590" width="60" height="30" as="geometry" />
        </mxCell>
        <mxCell id="OgNLUx5or4g087gnhACm-19" value="Respond Immediately" style="rounded=0;whiteSpace=wrap;html=1;sketch=0;" vertex="1" parent="s7bDI3plUleritC216_h-1">
          <mxGeometry x="200" y="590" width="120" height="60" as="geometry" />
        </mxCell>
        <mxCell id="OgNLUx5or4g087gnhACm-21" value="" style="shape=singleArrow;direction=south;whiteSpace=wrap;html=1;rounded=0;sketch=0;" vertex="1" parent="s7bDI3plUleritC216_h-1">
          <mxGeometry x="250" y="650" width="20" height="30" as="geometry" />
        </mxCell>
        <mxCell id="OgNLUx5or4g087gnhACm-22" value="End" style="ellipse;whiteSpace=wrap;html=1;rounded=0;sketch=0;" vertex="1" parent="s7bDI3plUleritC216_h-1">
          <mxGeometry x="240" y="680" width="40" height="30" as="geometry" />
        </mxCell>
        <mxCell id="OgNLUx5or4g087gnhACm-23" value="App sent to Dean" style="rounded=0;whiteSpace=wrap;html=1;sketch=0;" vertex="1" parent="s7bDI3plUleritC216_h-1">
          <mxGeometry x="510" y="590" width="120" height="60" as="geometry" />
        </mxCell>
        <mxCell id="OgNLUx5or4g087gnhACm-24" value="" style="shape=singleArrow;direction=south;whiteSpace=wrap;html=1;rounded=0;sketch=0;" vertex="1" parent="s7bDI3plUleritC216_h-1">
          <mxGeometry x="570" y="650" width="20" height="30" as="geometry" />
        </mxCell>
        <mxCell id="OgNLUx5or4g087gnhACm-26" value="He/She decided whether its accepted or not" style="rhombus;whiteSpace=wrap;html=1;rounded=0;sketch=0;" vertex="1" parent="s7bDI3plUleritC216_h-1">
          <mxGeometry x="525" y="680" width="110" height="110" as="geometry" />
        </mxCell>
        <mxCell id="OgNLUx5or4g087gnhACm-27" value="" style="shape=singleArrow;direction=west;whiteSpace=wrap;html=1;rounded=0;sketch=0;" vertex="1" parent="s7bDI3plUleritC216_h-1">
          <mxGeometry x="490" y="722.5" width="35" height="25" as="geometry" />
        </mxCell>
        <mxCell id="OgNLUx5or4g087gnhACm-28" value="Application is not accepted" style="rounded=0;whiteSpace=wrap;html=1;sketch=0;" vertex="1" parent="s7bDI3plUleritC216_h-1">
          <mxGeometry x="368.75" y="705" width="120" height="60" as="geometry" />
        </mxCell>
        <mxCell id="OgNLUx5or4g087gnhACm-29" value="" style="shape=singleArrow;whiteSpace=wrap;html=1;rounded=0;sketch=0;" vertex="1" parent="s7bDI3plUleritC216_h-1">
          <mxGeometry x="635" y="722.5" width="30" height="25" as="geometry" />
        </mxCell>
        <mxCell id="OgNLUx5or4g087gnhACm-30" value="Application accepted" style="rounded=0;whiteSpace=wrap;html=1;sketch=0;" vertex="1" parent="s7bDI3plUleritC216_h-1">
          <mxGeometry x="665" y="700" width="120" height="60" as="geometry" />
        </mxCell>
        <mxCell id="OgNLUx5or4g087gnhACm-31" value="No" style="text;html=1;strokeColor=none;fillColor=none;align=center;verticalAlign=middle;whiteSpace=wrap;rounded=0;sketch=0;" vertex="1" parent="s7bDI3plUleritC216_h-1">
          <mxGeometry x="477.5" y="710" width="60" height="30" as="geometry" />
        </mxCell>
        <mxCell id="OgNLUx5or4g087gnhACm-32" value="Yes" style="text;html=1;strokeColor=none;fillColor=none;align=center;verticalAlign=middle;whiteSpace=wrap;rounded=0;sketch=0;" vertex="1" parent="s7bDI3plUleritC216_h-1">
          <mxGeometry x="610" y="710" width="60" height="30" as="geometry" />
        </mxCell>
        <mxCell id="OgNLUx5or4g087gnhACm-33" value="" style="shape=singleArrow;direction=south;whiteSpace=wrap;html=1;rounded=0;sketch=0;" vertex="1" parent="s7bDI3plUleritC216_h-1">
          <mxGeometry x="420" y="765" width="38.75" height="35" as="geometry" />
        </mxCell>
        <mxCell id="OgNLUx5or4g087gnhACm-34" value="End" style="ellipse;whiteSpace=wrap;html=1;rounded=0;sketch=0;" vertex="1" parent="s7bDI3plUleritC216_h-1">
          <mxGeometry x="414.38" y="800" width="50" height="30" as="geometry" />
        </mxCell>
        <mxCell id="OgNLUx5or4g087gnhACm-35" value="" style="shape=singleArrow;direction=south;whiteSpace=wrap;html=1;rounded=0;sketch=0;" vertex="1" parent="s7bDI3plUleritC216_h-1">
          <mxGeometry x="720" y="760" width="20" height="30" as="geometry" />
        </mxCell>
        <mxCell id="OgNLUx5or4g087gnhACm-36" value="Dean receives Information" style="rounded=0;whiteSpace=wrap;html=1;sketch=0;" vertex="1" parent="s7bDI3plUleritC216_h-1">
          <mxGeometry x="670" y="790" width="120" height="60" as="geometry" />
        </mxCell>
        <mxCell id="OgNLUx5or4g087gnhACm-37" value="" style="shape=singleArrow;direction=south;whiteSpace=wrap;html=1;rounded=0;sketch=0;" vertex="1" parent="s7bDI3plUleritC216_h-1">
          <mxGeometry x="720" y="850" width="20" height="30" as="geometry" />
        </mxCell>
        <mxCell id="OgNLUx5or4g087gnhACm-38" value="Change data from the app content&amp;nbsp;" style="rounded=0;whiteSpace=wrap;html=1;sketch=0;" vertex="1" parent="s7bDI3plUleritC216_h-1">
          <mxGeometry x="670" y="880" width="120" height="60" as="geometry" />
        </mxCell>
        <mxCell id="OgNLUx5or4g087gnhACm-39" value="" style="shape=singleArrow;direction=south;whiteSpace=wrap;html=1;rounded=0;sketch=0;" vertex="1" parent="s7bDI3plUleritC216_h-1">
          <mxGeometry x="720" y="940" width="20" height="30" as="geometry" />
        </mxCell>
        <mxCell id="OgNLUx5or4g087gnhACm-40" value="End" style="ellipse;whiteSpace=wrap;html=1;rounded=0;sketch=0;" vertex="1" parent="s7bDI3plUleritC216_h-1">
          <mxGeometry x="705" y="970" width="50" height="30" as="geometry" />
        </mxCell>
      </root>
    </mxGraphModel>
  </diagram>
  <diagram id="NfbP89BRt7OJliRDEWdi" name="Page-3">
    <mxGraphModel dx="1964" dy="936" grid="0" gridSize="10" guides="1" tooltips="1" connect="1" arrows="1" fold="1" page="0" pageScale="1" pageWidth="850" pageHeight="1100" math="0" shadow="1">
      <root>
        <mxCell id="CzV_cmPe9avDmBO1CHY_-0" />
        <mxCell id="CzV_cmPe9avDmBO1CHY_-1" parent="CzV_cmPe9avDmBO1CHY_-0" />
        <mxCell id="nnJpyjpz-r-_ze_Gq--n-0" value="Start" style="ellipse;whiteSpace=wrap;html=1;" vertex="1" parent="CzV_cmPe9avDmBO1CHY_-1">
          <mxGeometry x="320" y="30" width="60" height="40" as="geometry" />
        </mxCell>
        <mxCell id="nnJpyjpz-r-_ze_Gq--n-1" value="" style="shape=singleArrow;direction=south;whiteSpace=wrap;html=1;" vertex="1" parent="CzV_cmPe9avDmBO1CHY_-1">
          <mxGeometry x="340" y="70" width="20" height="30" as="geometry" />
        </mxCell>
        <mxCell id="nnJpyjpz-r-_ze_Gq--n-2" value="Web Interface" style="rhombus;whiteSpace=wrap;html=1;" vertex="1" parent="CzV_cmPe9avDmBO1CHY_-1">
          <mxGeometry x="295" y="100" width="110" height="110" as="geometry" />
        </mxCell>
        <mxCell id="nnJpyjpz-r-_ze_Gq--n-5" value="" style="shape=singleArrow;direction=west;whiteSpace=wrap;html=1;" vertex="1" parent="CzV_cmPe9avDmBO1CHY_-1">
          <mxGeometry x="260" y="145" width="35" height="20" as="geometry" />
        </mxCell>
        <mxCell id="nnJpyjpz-r-_ze_Gq--n-6" value="" style="shape=singleArrow;whiteSpace=wrap;html=1;" vertex="1" parent="CzV_cmPe9avDmBO1CHY_-1">
          <mxGeometry x="405" y="145" width="35" height="20" as="geometry" />
        </mxCell>
        <mxCell id="nnJpyjpz-r-_ze_Gq--n-15" value="" style="edgeStyle=orthogonalEdgeStyle;orthogonalLoop=1;jettySize=auto;html=1;" edge="1" parent="CzV_cmPe9avDmBO1CHY_-1" source="nnJpyjpz-r-_ze_Gq--n-7" target="nnJpyjpz-r-_ze_Gq--n-14">
          <mxGeometry relative="1" as="geometry" />
        </mxCell>
        <mxCell id="nnJpyjpz-r-_ze_Gq--n-7" value="Order is entered by customer" style="whiteSpace=wrap;html=1;" vertex="1" parent="CzV_cmPe9avDmBO1CHY_-1">
          <mxGeometry x="440" y="125" width="120" height="60" as="geometry" />
        </mxCell>
        <mxCell id="nnJpyjpz-r-_ze_Gq--n-8" value="Yes" style="text;html=1;strokeColor=none;fillColor=none;align=center;verticalAlign=middle;whiteSpace=wrap;" vertex="1" parent="CzV_cmPe9avDmBO1CHY_-1">
          <mxGeometry x="380" y="130" width="60" height="30" as="geometry" />
        </mxCell>
        <mxCell id="nnJpyjpz-r-_ze_Gq--n-10" value="No" style="text;html=1;strokeColor=none;fillColor=none;align=center;verticalAlign=middle;whiteSpace=wrap;" vertex="1" parent="CzV_cmPe9avDmBO1CHY_-1">
          <mxGeometry x="260" y="130" width="60" height="30" as="geometry" />
        </mxCell>
        <mxCell id="nnJpyjpz-r-_ze_Gq--n-11" value="Order is entered by helpdesk" style="whiteSpace=wrap;html=1;" vertex="1" parent="CzV_cmPe9avDmBO1CHY_-1">
          <mxGeometry x="140" y="125" width="120" height="60" as="geometry" />
        </mxCell>
        <mxCell id="nnJpyjpz-r-_ze_Gq--n-12" value="" style="shape=singleArrow;direction=south;whiteSpace=wrap;html=1;" vertex="1" parent="CzV_cmPe9avDmBO1CHY_-1">
          <mxGeometry x="190" y="185" width="20" height="35" as="geometry" />
        </mxCell>
        <mxCell id="nnJpyjpz-r-_ze_Gq--n-13" value="Transfer to business Analyst" style="whiteSpace=wrap;html=1;" vertex="1" parent="CzV_cmPe9avDmBO1CHY_-1">
          <mxGeometry x="140" y="220" width="120" height="60" as="geometry" />
        </mxCell>
        <mxCell id="nnJpyjpz-r-_ze_Gq--n-17" value="" style="edgeStyle=orthogonalEdgeStyle;orthogonalLoop=1;jettySize=auto;html=1;" edge="1" parent="CzV_cmPe9avDmBO1CHY_-1" source="nnJpyjpz-r-_ze_Gq--n-14" target="nnJpyjpz-r-_ze_Gq--n-16">
          <mxGeometry relative="1" as="geometry" />
        </mxCell>
        <mxCell id="nnJpyjpz-r-_ze_Gq--n-14" value="" style="shape=waypoint;size=6;pointerEvents=1;points=[];resizable=0;rotatable=0;perimeter=centerPerimeter;snapToPoint=1;" vertex="1" parent="CzV_cmPe9avDmBO1CHY_-1">
          <mxGeometry x="480" y="230" width="40" height="40" as="geometry" />
        </mxCell>
        <mxCell id="nnJpyjpz-r-_ze_Gq--n-18" value="" style="edgeStyle=orthogonalEdgeStyle;orthogonalLoop=1;jettySize=auto;html=1;" edge="1" parent="CzV_cmPe9avDmBO1CHY_-1" source="nnJpyjpz-r-_ze_Gq--n-16" target="nnJpyjpz-r-_ze_Gq--n-13">
          <mxGeometry relative="1" as="geometry" />
        </mxCell>
        <mxCell id="nnJpyjpz-r-_ze_Gq--n-16" value="" style="shape=waypoint;size=6;pointerEvents=1;points=[];resizable=0;rotatable=0;perimeter=centerPerimeter;snapToPoint=1;" vertex="1" parent="CzV_cmPe9avDmBO1CHY_-1">
          <mxGeometry x="360" y="230" width="40" height="40" as="geometry" />
        </mxCell>
        <mxCell id="nnJpyjpz-r-_ze_Gq--n-19" value="" style="shape=singleArrow;direction=south;whiteSpace=wrap;html=1;" vertex="1" parent="CzV_cmPe9avDmBO1CHY_-1">
          <mxGeometry x="190" y="280" width="20" height="30" as="geometry" />
        </mxCell>
        <mxCell id="nnJpyjpz-r-_ze_Gq--n-20" value="Analyst verifies the note" style="whiteSpace=wrap;html=1;" vertex="1" parent="CzV_cmPe9avDmBO1CHY_-1">
          <mxGeometry x="140" y="310" width="120" height="60" as="geometry" />
        </mxCell>
        <mxCell id="nnJpyjpz-r-_ze_Gq--n-21" value="" style="shape=singleArrow;direction=south;whiteSpace=wrap;html=1;" vertex="1" parent="CzV_cmPe9avDmBO1CHY_-1">
          <mxGeometry x="190" y="370" width="20" height="30" as="geometry" />
        </mxCell>
        <mxCell id="nnJpyjpz-r-_ze_Gq--n-22" value="Check the order contains" style="whiteSpace=wrap;html=1;" vertex="1" parent="CzV_cmPe9avDmBO1CHY_-1">
          <mxGeometry x="140" y="400" width="120" height="60" as="geometry" />
        </mxCell>
        <mxCell id="nnJpyjpz-r-_ze_Gq--n-23" value="" style="shape=singleArrow;direction=south;whiteSpace=wrap;html=1;" vertex="1" parent="CzV_cmPe9avDmBO1CHY_-1">
          <mxGeometry x="190" y="460" width="20" height="30" as="geometry" />
        </mxCell>
        <mxCell id="nnJpyjpz-r-_ze_Gq--n-24" value="Decide whether it can be transfered to TD" style="rhombus;whiteSpace=wrap;html=1;" vertex="1" parent="CzV_cmPe9avDmBO1CHY_-1">
          <mxGeometry x="117.5" y="490" width="165" height="140" as="geometry" />
        </mxCell>
        <mxCell id="nnJpyjpz-r-_ze_Gq--n-25" value="" style="shape=singleArrow;direction=west;whiteSpace=wrap;html=1;" vertex="1" parent="CzV_cmPe9avDmBO1CHY_-1">
          <mxGeometry x="80" y="550" width="37.5" height="20" as="geometry" />
        </mxCell>
        <mxCell id="nnJpyjpz-r-_ze_Gq--n-27" value="No" style="text;html=1;strokeColor=none;fillColor=none;align=center;verticalAlign=middle;whiteSpace=wrap;" vertex="1" parent="CzV_cmPe9avDmBO1CHY_-1">
          <mxGeometry x="68.75" y="535" width="60" height="30" as="geometry" />
        </mxCell>
        <mxCell id="nnJpyjpz-r-_ze_Gq--n-28" value="" style="shape=singleArrow;direction=south;whiteSpace=wrap;html=1;rounded=0;sketch=0;" vertex="1" parent="CzV_cmPe9avDmBO1CHY_-1">
          <mxGeometry x="10" y="590" width="20" height="30" as="geometry" />
        </mxCell>
        <mxCell id="nnJpyjpz-r-_ze_Gq--n-29" value="Submitter notified cancellation" style="rounded=0;whiteSpace=wrap;html=1;sketch=0;" vertex="1" parent="CzV_cmPe9avDmBO1CHY_-1">
          <mxGeometry x="-40" y="620" width="120" height="60" as="geometry" />
        </mxCell>
        <mxCell id="nnJpyjpz-r-_ze_Gq--n-31" value="Missing Data" style="shape=parallelogram;perimeter=parallelogramPerimeter;whiteSpace=wrap;html=1;fixedSize=1;rounded=0;sketch=0;" vertex="1" parent="CzV_cmPe9avDmBO1CHY_-1">
          <mxGeometry x="-30" y="530" width="120" height="60" as="geometry" />
        </mxCell>
        <mxCell id="nnJpyjpz-r-_ze_Gq--n-32" value="" style="shape=singleArrow;direction=south;whiteSpace=wrap;html=1;rounded=0;sketch=0;" vertex="1" parent="CzV_cmPe9avDmBO1CHY_-1">
          <mxGeometry x="10" y="680" width="20" height="30" as="geometry" />
        </mxCell>
        <mxCell id="nnJpyjpz-r-_ze_Gq--n-33" value="End" style="ellipse;whiteSpace=wrap;html=1;rounded=0;sketch=0;" vertex="1" parent="CzV_cmPe9avDmBO1CHY_-1">
          <mxGeometry x="-10" y="710" width="65" height="30" as="geometry" />
        </mxCell>
        <mxCell id="nnJpyjpz-r-_ze_Gq--n-35" value="" style="shape=singleArrow;whiteSpace=wrap;html=1;rounded=0;sketch=0;" vertex="1" parent="CzV_cmPe9avDmBO1CHY_-1">
          <mxGeometry x="282.5" y="550" width="27.5" height="20" as="geometry" />
        </mxCell>
        <mxCell id="nnJpyjpz-r-_ze_Gq--n-36" value="Yes" style="text;html=1;strokeColor=none;fillColor=none;align=center;verticalAlign=middle;whiteSpace=wrap;rounded=0;sketch=0;" vertex="1" parent="CzV_cmPe9avDmBO1CHY_-1">
          <mxGeometry x="260" y="535" width="60" height="30" as="geometry" />
        </mxCell>
        <mxCell id="nnJpyjpz-r-_ze_Gq--n-37" value="Check whether the answer to the prob isn&#39;t the Compagny" style="rounded=0;whiteSpace=wrap;html=1;sketch=0;" vertex="1" parent="CzV_cmPe9avDmBO1CHY_-1">
          <mxGeometry x="310" y="530" width="120" height="60" as="geometry" />
        </mxCell>
        <mxCell id="nnJpyjpz-r-_ze_Gq--n-38" value="" style="shape=singleArrow;direction=south;whiteSpace=wrap;html=1;rounded=0;sketch=0;" vertex="1" parent="CzV_cmPe9avDmBO1CHY_-1">
          <mxGeometry x="380" y="590" width="25" height="30" as="geometry" />
        </mxCell>
        <mxCell id="nnJpyjpz-r-_ze_Gq--n-41" value="Knowledge Base" style="rhombus;whiteSpace=wrap;html=1;rounded=0;sketch=0;" vertex="1" parent="CzV_cmPe9avDmBO1CHY_-1">
          <mxGeometry x="338.75" y="620" width="107.5" height="100" as="geometry" />
        </mxCell>
        <mxCell id="nnJpyjpz-r-_ze_Gq--n-42" value="" style="shape=singleArrow;whiteSpace=wrap;html=1;rounded=0;sketch=0;" vertex="1" parent="CzV_cmPe9avDmBO1CHY_-1">
          <mxGeometry x="446.25" y="660" width="33.75" height="20" as="geometry" />
        </mxCell>
        <mxCell id="nnJpyjpz-r-_ze_Gq--n-44" value="Close the Task" style="rounded=0;whiteSpace=wrap;html=1;sketch=0;" vertex="1" parent="CzV_cmPe9avDmBO1CHY_-1">
          <mxGeometry x="480" y="640" width="120" height="60" as="geometry" />
        </mxCell>
        <mxCell id="nnJpyjpz-r-_ze_Gq--n-45" value="Yes" style="text;html=1;strokeColor=none;fillColor=none;align=center;verticalAlign=middle;whiteSpace=wrap;rounded=0;sketch=0;" vertex="1" parent="CzV_cmPe9avDmBO1CHY_-1">
          <mxGeometry x="420" y="640" width="60" height="30" as="geometry" />
        </mxCell>
        <mxCell id="nnJpyjpz-r-_ze_Gq--n-46" value="" style="shape=singleArrow;direction=south;whiteSpace=wrap;html=1;rounded=0;sketch=0;" vertex="1" parent="CzV_cmPe9avDmBO1CHY_-1">
          <mxGeometry x="382.5" y="720" width="22.5" height="30" as="geometry" />
        </mxCell>
        <mxCell id="nnJpyjpz-r-_ze_Gq--n-47" value="No" style="text;html=1;strokeColor=none;fillColor=none;align=center;verticalAlign=middle;whiteSpace=wrap;rounded=0;sketch=0;rotation=90;" vertex="1" parent="CzV_cmPe9avDmBO1CHY_-1">
          <mxGeometry x="380" y="710" width="60" height="30" as="geometry" />
        </mxCell>
        <mxCell id="nnJpyjpz-r-_ze_Gq--n-48" value="Transfer to Technical Department&amp;nbsp;" style="rounded=0;whiteSpace=wrap;html=1;sketch=0;" vertex="1" parent="CzV_cmPe9avDmBO1CHY_-1">
          <mxGeometry x="333.75" y="750" width="120" height="60" as="geometry" />
        </mxCell>
        <mxCell id="nnJpyjpz-r-_ze_Gq--n-49" value="" style="shape=singleArrow;direction=south;whiteSpace=wrap;html=1;rounded=0;sketch=0;" vertex="1" parent="CzV_cmPe9avDmBO1CHY_-1">
          <mxGeometry x="382.5" y="810" width="23.75" height="30" as="geometry" />
        </mxCell>
        <mxCell id="nnJpyjpz-r-_ze_Gq--n-50" value="Solving the Problem" style="rounded=0;whiteSpace=wrap;html=1;sketch=0;" vertex="1" parent="CzV_cmPe9avDmBO1CHY_-1">
          <mxGeometry x="333.75" y="840" width="120" height="60" as="geometry" />
        </mxCell>
        <mxCell id="nnJpyjpz-r-_ze_Gq--n-51" value="" style="shape=singleArrow;direction=south;whiteSpace=wrap;html=1;rounded=0;sketch=0;" vertex="1" parent="CzV_cmPe9avDmBO1CHY_-1">
          <mxGeometry x="382.5" y="900" width="24.38" height="30" as="geometry" />
        </mxCell>
        <mxCell id="nnJpyjpz-r-_ze_Gq--n-52" value="If Prob Solved" style="rhombus;whiteSpace=wrap;html=1;rounded=0;sketch=0;" vertex="1" parent="CzV_cmPe9avDmBO1CHY_-1">
          <mxGeometry x="347.04" y="930" width="95.31" height="100" as="geometry" />
        </mxCell>
        <mxCell id="nnJpyjpz-r-_ze_Gq--n-54" style="edgeStyle=orthogonalEdgeStyle;curved=0;rounded=1;sketch=0;orthogonalLoop=1;jettySize=auto;html=1;exitX=0;exitY=0;exitDx=40;exitDy=7;exitPerimeter=0;entryX=0;entryY=0;entryDx=40;entryDy=13;entryPerimeter=0;" edge="1" parent="CzV_cmPe9avDmBO1CHY_-1">
          <mxGeometry relative="1" as="geometry">
            <mxPoint x="293.75" y="1003" as="sourcePoint" />
            <mxPoint x="293.75" y="997" as="targetPoint" />
          </mxGeometry>
        </mxCell>
        <mxCell id="nnJpyjpz-r-_ze_Gq--n-55" value="" style="shape=singleArrow;direction=west;whiteSpace=wrap;html=1;rounded=0;sketch=0;arrowWidth=0.4;arrowSize=0.20229997306034483;" vertex="1" parent="CzV_cmPe9avDmBO1CHY_-1">
          <mxGeometry x="310" y="970" width="36.25" height="20" as="geometry" />
        </mxCell>
        <mxCell id="nnJpyjpz-r-_ze_Gq--n-56" value="Yes" style="text;html=1;strokeColor=none;fillColor=none;align=center;verticalAlign=middle;whiteSpace=wrap;rounded=0;sketch=0;" vertex="1" parent="CzV_cmPe9avDmBO1CHY_-1">
          <mxGeometry x="310" y="950" width="60" height="30" as="geometry" />
        </mxCell>
        <mxCell id="nnJpyjpz-r-_ze_Gq--n-57" value="Description placed in the knowledge base" style="rounded=0;whiteSpace=wrap;html=1;sketch=0;" vertex="1" parent="CzV_cmPe9avDmBO1CHY_-1">
          <mxGeometry x="190" y="950" width="120" height="60" as="geometry" />
        </mxCell>
        <mxCell id="nnJpyjpz-r-_ze_Gq--n-58" value="" style="shape=singleArrow;whiteSpace=wrap;html=1;rounded=0;sketch=0;" vertex="1" parent="CzV_cmPe9avDmBO1CHY_-1">
          <mxGeometry x="440" y="970" width="30" height="20" as="geometry" />
        </mxCell>
        <mxCell id="nnJpyjpz-r-_ze_Gq--n-59" value="No" style="text;html=1;strokeColor=none;fillColor=none;align=center;verticalAlign=middle;whiteSpace=wrap;rounded=0;sketch=0;" vertex="1" parent="CzV_cmPe9avDmBO1CHY_-1">
          <mxGeometry x="410" y="950" width="60" height="30" as="geometry" />
        </mxCell>
        <mxCell id="nnJpyjpz-r-_ze_Gq--n-60" value="Cancel the Task" style="rounded=0;whiteSpace=wrap;html=1;sketch=0;" vertex="1" parent="CzV_cmPe9avDmBO1CHY_-1">
          <mxGeometry x="470" y="950" width="120" height="60" as="geometry" />
        </mxCell>
        <mxCell id="nnJpyjpz-r-_ze_Gq--n-61" value="" style="shape=singleArrow;direction=south;whiteSpace=wrap;html=1;rounded=0;sketch=0;" vertex="1" parent="CzV_cmPe9avDmBO1CHY_-1">
          <mxGeometry x="540" y="1010" width="20" height="30" as="geometry" />
        </mxCell>
        <mxCell id="nnJpyjpz-r-_ze_Gq--n-62" value="Description of the reason" style="rounded=0;whiteSpace=wrap;html=1;sketch=0;" vertex="1" parent="CzV_cmPe9avDmBO1CHY_-1">
          <mxGeometry x="470" y="1040" width="120" height="60" as="geometry" />
        </mxCell>
        <mxCell id="nnJpyjpz-r-_ze_Gq--n-63" value="" style="shape=singleArrow;direction=south;whiteSpace=wrap;html=1;rounded=0;sketch=0;" vertex="1" parent="CzV_cmPe9avDmBO1CHY_-1">
          <mxGeometry x="540" y="1100" width="20" height="30" as="geometry" />
        </mxCell>
        <mxCell id="nnJpyjpz-r-_ze_Gq--n-64" value="End" style="ellipse;whiteSpace=wrap;html=1;rounded=0;sketch=0;" vertex="1" parent="CzV_cmPe9avDmBO1CHY_-1">
          <mxGeometry x="520" y="1130" width="60" height="40" as="geometry" />
        </mxCell>
      </root>
    </mxGraphModel>
  </diagram>
  <diagram id="K1KO8vpQ--a7T5tjbmx2" name="Page-4">
    <mxGraphModel dx="1564" dy="936" grid="0" gridSize="10" guides="1" tooltips="1" connect="1" arrows="1" fold="1" page="0" pageScale="1" pageWidth="850" pageHeight="1100" math="0" shadow="1">
      <root>
        <mxCell id="hSvPpI1BreR3i0ffiK8Z-0" />
        <mxCell id="hSvPpI1BreR3i0ffiK8Z-1" parent="hSvPpI1BreR3i0ffiK8Z-0" />
        <mxCell id="C1EPboWhjcRv2gMWS7DO-0" value="Start" style="ellipse;whiteSpace=wrap;html=1;rounded=0;sketch=0;" vertex="1" parent="hSvPpI1BreR3i0ffiK8Z-1">
          <mxGeometry x="400" y="20" width="60" height="30" as="geometry" />
        </mxCell>
        <mxCell id="C1EPboWhjcRv2gMWS7DO-1" value="" style="shape=singleArrow;direction=south;whiteSpace=wrap;html=1;rounded=0;sketch=0;" vertex="1" parent="hSvPpI1BreR3i0ffiK8Z-1">
          <mxGeometry x="420" y="50" width="25" height="30" as="geometry" />
        </mxCell>
        <mxCell id="C1EPboWhjcRv2gMWS7DO-2" value="Submit first version of book" style="rounded=0;whiteSpace=wrap;html=1;sketch=0;" vertex="1" parent="hSvPpI1BreR3i0ffiK8Z-1">
          <mxGeometry x="372.5" y="80" width="120" height="60" as="geometry" />
        </mxCell>
        <mxCell id="C1EPboWhjcRv2gMWS7DO-4" value="" style="shape=singleArrow;direction=south;whiteSpace=wrap;html=1;rounded=0;sketch=0;arrowWidth=0.34814453125;arrowSize=0.7111104329427084;" vertex="1" parent="hSvPpI1BreR3i0ffiK8Z-1">
          <mxGeometry x="425" y="140" width="22.5" height="30" as="geometry" />
        </mxCell>
        <mxCell id="C1EPboWhjcRv2gMWS7DO-5" value="Check the scripts" style="rounded=0;whiteSpace=wrap;html=1;sketch=0;" vertex="1" parent="hSvPpI1BreR3i0ffiK8Z-1">
          <mxGeometry x="376.25" y="170" width="120" height="60" as="geometry" />
        </mxCell>
        <mxCell id="C1EPboWhjcRv2gMWS7DO-6" value="" style="shape=singleArrow;direction=south;whiteSpace=wrap;html=1;rounded=0;sketch=0;" vertex="1" parent="hSvPpI1BreR3i0ffiK8Z-1">
          <mxGeometry x="425" y="230" width="26.25" height="30" as="geometry" />
        </mxCell>
        <mxCell id="C1EPboWhjcRv2gMWS7DO-7" value="Opinion View" style="rounded=0;whiteSpace=wrap;html=1;sketch=0;" vertex="1" parent="hSvPpI1BreR3i0ffiK8Z-1">
          <mxGeometry x="378.13" y="260" width="120" height="60" as="geometry" />
        </mxCell>
        <mxCell id="C1EPboWhjcRv2gMWS7DO-9" value="" style="shape=singleArrow;whiteSpace=wrap;html=1;rounded=0;sketch=0;" vertex="1" parent="hSvPpI1BreR3i0ffiK8Z-1">
          <mxGeometry x="498.13" y="280" width="31.87" height="30" as="geometry" />
        </mxCell>
        <mxCell id="C1EPboWhjcRv2gMWS7DO-10" value="Yes" style="text;html=1;strokeColor=none;fillColor=none;align=center;verticalAlign=middle;whiteSpace=wrap;rounded=0;sketch=0;" vertex="1" parent="hSvPpI1BreR3i0ffiK8Z-1">
          <mxGeometry x="480" y="270" width="60" height="30" as="geometry" />
        </mxCell>
        <mxCell id="C1EPboWhjcRv2gMWS7DO-11" value="Publisher Negotiates" style="rounded=0;whiteSpace=wrap;html=1;sketch=0;" vertex="1" parent="hSvPpI1BreR3i0ffiK8Z-1">
          <mxGeometry x="530" y="270" width="120" height="60" as="geometry" />
        </mxCell>
        <mxCell id="C1EPboWhjcRv2gMWS7DO-12" value="" style="shape=singleArrow;direction=west;whiteSpace=wrap;html=1;rounded=0;sketch=0;" vertex="1" parent="hSvPpI1BreR3i0ffiK8Z-1">
          <mxGeometry x="340" y="290" width="38.13" height="25" as="geometry" />
        </mxCell>
        <mxCell id="C1EPboWhjcRv2gMWS7DO-13" value="No" style="text;html=1;strokeColor=none;fillColor=none;align=center;verticalAlign=middle;whiteSpace=wrap;rounded=0;sketch=0;" vertex="1" parent="hSvPpI1BreR3i0ffiK8Z-1">
          <mxGeometry x="329.07" y="275" width="60" height="30" as="geometry" />
        </mxCell>
        <mxCell id="C1EPboWhjcRv2gMWS7DO-14" value="Author informed of review" style="rounded=0;whiteSpace=wrap;html=1;sketch=0;" vertex="1" parent="hSvPpI1BreR3i0ffiK8Z-1">
          <mxGeometry x="220" y="270" width="120" height="60" as="geometry" />
        </mxCell>
        <mxCell id="C1EPboWhjcRv2gMWS7DO-15" value="" style="shape=singleArrow;direction=south;whiteSpace=wrap;html=1;rounded=0;sketch=0;" vertex="1" parent="hSvPpI1BreR3i0ffiK8Z-1">
          <mxGeometry x="270" y="330" width="20" height="30" as="geometry" />
        </mxCell>
        <mxCell id="C1EPboWhjcRv2gMWS7DO-16" value="End" style="ellipse;whiteSpace=wrap;html=1;rounded=0;sketch=0;" vertex="1" parent="hSvPpI1BreR3i0ffiK8Z-1">
          <mxGeometry x="250" y="360" width="50" height="30" as="geometry" />
        </mxCell>
        <mxCell id="C1EPboWhjcRv2gMWS7DO-17" value="" style="shape=singleArrow;direction=south;whiteSpace=wrap;html=1;rounded=0;sketch=0;" vertex="1" parent="hSvPpI1BreR3i0ffiK8Z-1">
          <mxGeometry x="600" y="330" width="20" height="30" as="geometry" />
        </mxCell>
        <mxCell id="C1EPboWhjcRv2gMWS7DO-18" value="Send to Editor" style="rounded=0;whiteSpace=wrap;html=1;sketch=0;" vertex="1" parent="hSvPpI1BreR3i0ffiK8Z-1">
          <mxGeometry x="550" y="360" width="120" height="60" as="geometry" />
        </mxCell>
        <mxCell id="C1EPboWhjcRv2gMWS7DO-19" value="Editor correct grammatical and stylistical errors" style="rounded=0;whiteSpace=wrap;html=1;sketch=0;" vertex="1" parent="hSvPpI1BreR3i0ffiK8Z-1">
          <mxGeometry x="550" y="450" width="120" height="60" as="geometry" />
        </mxCell>
        <mxCell id="C1EPboWhjcRv2gMWS7DO-20" value="" style="shape=singleArrow;direction=south;whiteSpace=wrap;html=1;rounded=0;sketch=0;" vertex="1" parent="hSvPpI1BreR3i0ffiK8Z-1">
          <mxGeometry x="620" y="420" width="20" height="30" as="geometry" />
        </mxCell>
        <mxCell id="C1EPboWhjcRv2gMWS7DO-21" value="" style="shape=singleArrow;direction=south;whiteSpace=wrap;html=1;rounded=0;sketch=0;" vertex="1" parent="hSvPpI1BreR3i0ffiK8Z-1">
          <mxGeometry x="620" y="510" width="20" height="30" as="geometry" />
        </mxCell>
        <mxCell id="C1EPboWhjcRv2gMWS7DO-22" value="Submit Correction to author" style="rounded=0;whiteSpace=wrap;html=1;sketch=0;" vertex="1" parent="hSvPpI1BreR3i0ffiK8Z-1">
          <mxGeometry x="550" y="540" width="120" height="60" as="geometry" />
        </mxCell>
        <mxCell id="C1EPboWhjcRv2gMWS7DO-23" value="" style="shape=singleArrow;direction=south;whiteSpace=wrap;html=1;rounded=0;sketch=0;" vertex="1" parent="hSvPpI1BreR3i0ffiK8Z-1">
          <mxGeometry x="630" y="600" width="20" height="30" as="geometry" />
        </mxCell>
        <mxCell id="C1EPboWhjcRv2gMWS7DO-33" value="" style="edgeStyle=orthogonalEdgeStyle;curved=0;rounded=1;sketch=0;orthogonalLoop=1;jettySize=auto;html=1;" edge="1" parent="hSvPpI1BreR3i0ffiK8Z-1" source="C1EPboWhjcRv2gMWS7DO-24" target="C1EPboWhjcRv2gMWS7DO-32">
          <mxGeometry relative="1" as="geometry" />
        </mxCell>
        <mxCell id="C1EPboWhjcRv2gMWS7DO-24" value="Leave The draft" style="rounded=0;whiteSpace=wrap;html=1;sketch=0;" vertex="1" parent="hSvPpI1BreR3i0ffiK8Z-1">
          <mxGeometry x="430" y="645" width="120" height="60" as="geometry" />
        </mxCell>
        <mxCell id="C1EPboWhjcRv2gMWS7DO-25" value="Accept" style="rhombus;whiteSpace=wrap;html=1;rounded=0;sketch=0;" vertex="1" parent="hSvPpI1BreR3i0ffiK8Z-1">
          <mxGeometry x="600" y="630" width="80" height="80" as="geometry" />
        </mxCell>
        <mxCell id="C1EPboWhjcRv2gMWS7DO-26" value="" style="shape=singleArrow;direction=west;whiteSpace=wrap;html=1;rounded=0;sketch=0;" vertex="1" parent="hSvPpI1BreR3i0ffiK8Z-1">
          <mxGeometry x="550" y="655" width="50" height="30" as="geometry" />
        </mxCell>
        <mxCell id="C1EPboWhjcRv2gMWS7DO-27" value="No" style="text;html=1;strokeColor=none;fillColor=none;align=center;verticalAlign=middle;whiteSpace=wrap;rounded=0;sketch=0;" vertex="1" parent="hSvPpI1BreR3i0ffiK8Z-1">
          <mxGeometry x="550" y="645" width="60" height="30" as="geometry" />
        </mxCell>
        <mxCell id="C1EPboWhjcRv2gMWS7DO-28" value="" style="shape=singleArrow;whiteSpace=wrap;html=1;rounded=0;sketch=0;" vertex="1" parent="hSvPpI1BreR3i0ffiK8Z-1">
          <mxGeometry x="680" y="655" width="30" height="30" as="geometry" />
        </mxCell>
        <mxCell id="C1EPboWhjcRv2gMWS7DO-29" value="Yes" style="text;html=1;strokeColor=none;fillColor=none;align=center;verticalAlign=middle;whiteSpace=wrap;rounded=0;sketch=0;" vertex="1" parent="hSvPpI1BreR3i0ffiK8Z-1">
          <mxGeometry x="660" y="640" width="60" height="30" as="geometry" />
        </mxCell>
        <mxCell id="C1EPboWhjcRv2gMWS7DO-36" value="" style="edgeStyle=orthogonalEdgeStyle;curved=0;rounded=1;sketch=0;orthogonalLoop=1;jettySize=auto;html=1;" edge="1" parent="hSvPpI1BreR3i0ffiK8Z-1" source="C1EPboWhjcRv2gMWS7DO-30" target="C1EPboWhjcRv2gMWS7DO-35">
          <mxGeometry relative="1" as="geometry" />
        </mxCell>
        <mxCell id="C1EPboWhjcRv2gMWS7DO-30" value="Amend" style="rounded=0;whiteSpace=wrap;html=1;sketch=0;" vertex="1" parent="hSvPpI1BreR3i0ffiK8Z-1">
          <mxGeometry x="710" y="640" width="120" height="60" as="geometry" />
        </mxCell>
        <mxCell id="C1EPboWhjcRv2gMWS7DO-31" value="Transfer" style="ellipse;whiteSpace=wrap;html=1;aspect=fixed;rounded=0;sketch=0;" vertex="1" parent="hSvPpI1BreR3i0ffiK8Z-1">
          <mxGeometry x="600" y="730" width="80" height="80" as="geometry" />
        </mxCell>
        <mxCell id="C1EPboWhjcRv2gMWS7DO-34" value="" style="edgeStyle=orthogonalEdgeStyle;curved=0;rounded=1;sketch=0;orthogonalLoop=1;jettySize=auto;html=1;" edge="1" parent="hSvPpI1BreR3i0ffiK8Z-1" source="C1EPboWhjcRv2gMWS7DO-32" target="C1EPboWhjcRv2gMWS7DO-31">
          <mxGeometry relative="1" as="geometry" />
        </mxCell>
        <mxCell id="C1EPboWhjcRv2gMWS7DO-32" value="" style="shape=waypoint;sketch=0;size=6;pointerEvents=1;points=[];fillColor=#ffffff;resizable=0;rotatable=0;perimeter=centerPerimeter;snapToPoint=1;rounded=0;" vertex="1" parent="hSvPpI1BreR3i0ffiK8Z-1">
          <mxGeometry x="470" y="795" width="40" height="40" as="geometry" />
        </mxCell>
        <mxCell id="C1EPboWhjcRv2gMWS7DO-37" value="" style="edgeStyle=orthogonalEdgeStyle;curved=0;rounded=1;sketch=0;orthogonalLoop=1;jettySize=auto;html=1;" edge="1" parent="hSvPpI1BreR3i0ffiK8Z-1" source="C1EPboWhjcRv2gMWS7DO-35" target="C1EPboWhjcRv2gMWS7DO-31">
          <mxGeometry relative="1" as="geometry" />
        </mxCell>
        <mxCell id="C1EPboWhjcRv2gMWS7DO-35" value="" style="shape=waypoint;sketch=0;size=6;pointerEvents=1;points=[];fillColor=#ffffff;resizable=0;rotatable=0;perimeter=centerPerimeter;snapToPoint=1;rounded=0;" vertex="1" parent="hSvPpI1BreR3i0ffiK8Z-1">
          <mxGeometry x="750" y="790" width="40" height="40" as="geometry" />
        </mxCell>
        <mxCell id="C1EPboWhjcRv2gMWS7DO-38" value="" style="shape=singleArrow;direction=south;whiteSpace=wrap;html=1;rounded=0;sketch=0;" vertex="1" parent="hSvPpI1BreR3i0ffiK8Z-1">
          <mxGeometry x="625" y="810" width="30" height="40" as="geometry" />
        </mxCell>
        <mxCell id="C1EPboWhjcRv2gMWS7DO-39" value="Design of Cover" style="rounded=0;whiteSpace=wrap;html=1;sketch=0;" vertex="1" parent="hSvPpI1BreR3i0ffiK8Z-1">
          <mxGeometry x="580" y="850" width="120" height="60" as="geometry" />
        </mxCell>
        <mxCell id="C1EPboWhjcRv2gMWS7DO-40" value="" style="shape=singleArrow;direction=south;whiteSpace=wrap;html=1;rounded=0;sketch=0;" vertex="1" parent="hSvPpI1BreR3i0ffiK8Z-1">
          <mxGeometry x="640" y="910" width="30" height="30" as="geometry" />
        </mxCell>
        <mxCell id="C1EPboWhjcRv2gMWS7DO-41" value="Marketing to develop" style="rounded=0;whiteSpace=wrap;html=1;sketch=0;" vertex="1" parent="hSvPpI1BreR3i0ffiK8Z-1">
          <mxGeometry x="590" y="940" width="120" height="60" as="geometry" />
        </mxCell>
        <mxCell id="C1EPboWhjcRv2gMWS7DO-42" value="" style="shape=singleArrow;direction=south;whiteSpace=wrap;html=1;rounded=0;sketch=0;" vertex="1" parent="hSvPpI1BreR3i0ffiK8Z-1">
          <mxGeometry x="650" y="1000" width="35" height="30" as="geometry" />
        </mxCell>
        <mxCell id="C1EPboWhjcRv2gMWS7DO-43" value="Distribution Market" style="rounded=0;whiteSpace=wrap;html=1;sketch=0;" vertex="1" parent="hSvPpI1BreR3i0ffiK8Z-1">
          <mxGeometry x="595" y="1030" width="120" height="60" as="geometry" />
        </mxCell>
        <mxCell id="C1EPboWhjcRv2gMWS7DO-44" value="" style="shape=singleArrow;direction=south;whiteSpace=wrap;html=1;rounded=0;sketch=0;" vertex="1" parent="hSvPpI1BreR3i0ffiK8Z-1">
          <mxGeometry x="660" y="1090" width="30" height="40" as="geometry" />
        </mxCell>
        <mxCell id="C1EPboWhjcRv2gMWS7DO-46" value="End" style="ellipse;whiteSpace=wrap;html=1;rounded=0;sketch=0;" vertex="1" parent="hSvPpI1BreR3i0ffiK8Z-1">
          <mxGeometry x="640" y="1130" width="70" height="30" as="geometry" />
        </mxCell>
      </root>
    </mxGraphModel>
  </diagram>
  <diagram id="fHPmbIuCtVhHzZtWOgsf" name="Page-5">
    <mxGraphModel dx="782" dy="468" grid="1" gridSize="10" guides="1" tooltips="1" connect="1" arrows="1" fold="1" page="1" pageScale="1" pageWidth="850" pageHeight="1100" math="0" shadow="0">
      <root>
        <mxCell id="m7pbJpnxdFMApj_nD5Fw-0" />
        <mxCell id="m7pbJpnxdFMApj_nD5Fw-1" parent="m7pbJpnxdFMApj_nD5Fw-0" />
        <mxCell id="wNLN2cfkmf7QuiB5fG9d-0" value="Start" style="ellipse;whiteSpace=wrap;html=1;rounded=0;sketch=0;" vertex="1" parent="m7pbJpnxdFMApj_nD5Fw-1">
          <mxGeometry x="410" y="50" width="60" height="40" as="geometry" />
        </mxCell>
        <mxCell id="wNLN2cfkmf7QuiB5fG9d-1" value="" style="shape=singleArrow;direction=south;whiteSpace=wrap;html=1;rounded=0;sketch=0;" vertex="1" parent="m7pbJpnxdFMApj_nD5Fw-1">
          <mxGeometry x="430" y="90" width="20" height="30" as="geometry" />
        </mxCell>
        <mxCell id="wNLN2cfkmf7QuiB5fG9d-2" value="Insert your Card" style="rounded=0;whiteSpace=wrap;html=1;sketch=0;" vertex="1" parent="m7pbJpnxdFMApj_nD5Fw-1">
          <mxGeometry x="380" y="120" width="120" height="60" as="geometry" />
        </mxCell>
        <mxCell id="wNLN2cfkmf7QuiB5fG9d-3" value="" style="shape=singleArrow;direction=south;whiteSpace=wrap;html=1;rounded=0;sketch=0;" vertex="1" parent="m7pbJpnxdFMApj_nD5Fw-1">
          <mxGeometry x="430" y="180" width="20" height="30" as="geometry" />
        </mxCell>
        <mxCell id="wNLN2cfkmf7QuiB5fG9d-4" value="Please enter PIN" style="rounded=0;whiteSpace=wrap;html=1;sketch=0;" vertex="1" parent="m7pbJpnxdFMApj_nD5Fw-1">
          <mxGeometry x="380" y="210" width="120" height="60" as="geometry" />
        </mxCell>
        <mxCell id="wNLN2cfkmf7QuiB5fG9d-5" value="" style="shape=singleArrow;direction=south;whiteSpace=wrap;html=1;rounded=0;sketch=0;" vertex="1" parent="m7pbJpnxdFMApj_nD5Fw-1">
          <mxGeometry x="430" y="270" width="20" height="30" as="geometry" />
        </mxCell>
        <mxCell id="wNLN2cfkmf7QuiB5fG9d-7" value="Accept Pin" style="rhombus;whiteSpace=wrap;html=1;rounded=0;sketch=0;" vertex="1" parent="m7pbJpnxdFMApj_nD5Fw-1">
          <mxGeometry x="390" y="300" width="100" height="100" as="geometry" />
        </mxCell>
        <mxCell id="wNLN2cfkmf7QuiB5fG9d-8" value="" style="shape=singleArrow;direction=west;whiteSpace=wrap;html=1;rounded=0;sketch=0;" vertex="1" parent="m7pbJpnxdFMApj_nD5Fw-1">
          <mxGeometry x="360" y="340" width="30" height="20" as="geometry" />
        </mxCell>
        <mxCell id="wNLN2cfkmf7QuiB5fG9d-23" style="edgeStyle=orthogonalEdgeStyle;curved=0;rounded=1;sketch=0;orthogonalLoop=1;jettySize=auto;html=1;exitX=0.75;exitY=1;exitDx=0;exitDy=0;" edge="1" parent="m7pbJpnxdFMApj_nD5Fw-1" source="wNLN2cfkmf7QuiB5fG9d-9">
          <mxGeometry relative="1" as="geometry">
            <mxPoint x="395" y="360" as="targetPoint" />
          </mxGeometry>
        </mxCell>
        <mxCell id="wNLN2cfkmf7QuiB5fG9d-9" value="No" style="text;html=1;strokeColor=none;fillColor=none;align=center;verticalAlign=middle;whiteSpace=wrap;rounded=0;sketch=0;" vertex="1" parent="m7pbJpnxdFMApj_nD5Fw-1">
          <mxGeometry x="350" y="320" width="60" height="30" as="geometry" />
        </mxCell>
        <mxCell id="wNLN2cfkmf7QuiB5fG9d-11" value="" style="shape=singleArrow;direction=south;whiteSpace=wrap;html=1;rounded=0;sketch=0;" vertex="1" parent="m7pbJpnxdFMApj_nD5Fw-1">
          <mxGeometry x="300" y="380" width="20" height="30" as="geometry" />
        </mxCell>
        <mxCell id="wNLN2cfkmf7QuiB5fG9d-14" value="" style="shape=singleArrow;whiteSpace=wrap;html=1;rounded=0;sketch=0;" vertex="1" parent="m7pbJpnxdFMApj_nD5Fw-1">
          <mxGeometry x="490" y="340" width="30" height="20" as="geometry" />
        </mxCell>
        <mxCell id="wNLN2cfkmf7QuiB5fG9d-15" value="Please Select Transaction" style="rounded=0;whiteSpace=wrap;html=1;sketch=0;" vertex="1" parent="m7pbJpnxdFMApj_nD5Fw-1">
          <mxGeometry x="520" y="320" width="120" height="60" as="geometry" />
        </mxCell>
        <mxCell id="wNLN2cfkmf7QuiB5fG9d-16" value="Yes" style="text;html=1;strokeColor=none;fillColor=none;align=center;verticalAlign=middle;whiteSpace=wrap;rounded=0;sketch=0;" vertex="1" parent="m7pbJpnxdFMApj_nD5Fw-1">
          <mxGeometry x="470" y="320" width="60" height="30" as="geometry" />
        </mxCell>
        <mxCell id="wNLN2cfkmf7QuiB5fG9d-17" value="" style="shape=singleArrow;direction=south;whiteSpace=wrap;html=1;rounded=0;sketch=0;" vertex="1" parent="m7pbJpnxdFMApj_nD5Fw-1">
          <mxGeometry x="590" y="380" width="20" height="30" as="geometry" />
        </mxCell>
        <mxCell id="wNLN2cfkmf7QuiB5fG9d-18" value="Please enter amount of money" style="rounded=0;whiteSpace=wrap;html=1;sketch=0;" vertex="1" parent="m7pbJpnxdFMApj_nD5Fw-1">
          <mxGeometry x="540" y="410" width="120" height="60" as="geometry" />
        </mxCell>
        <mxCell id="wNLN2cfkmf7QuiB5fG9d-19" value="" style="shape=singleArrow;direction=south;whiteSpace=wrap;html=1;rounded=0;sketch=0;" vertex="1" parent="m7pbJpnxdFMApj_nD5Fw-1">
          <mxGeometry x="590" y="470" width="20" height="30" as="geometry" />
        </mxCell>
        <mxCell id="wNLN2cfkmf7QuiB5fG9d-20" value="Number entered more than 3 times" style="rounded=0;whiteSpace=wrap;html=1;sketch=0;" vertex="1" parent="m7pbJpnxdFMApj_nD5Fw-1">
          <mxGeometry x="240" y="410" width="120" height="60" as="geometry" />
        </mxCell>
        <mxCell id="wNLN2cfkmf7QuiB5fG9d-21" value="Pin Incorrect" style="rounded=0;whiteSpace=wrap;html=1;sketch=0;" vertex="1" parent="m7pbJpnxdFMApj_nD5Fw-1">
          <mxGeometry x="240" y="320" width="120" height="60" as="geometry" />
        </mxCell>
        <mxCell id="wNLN2cfkmf7QuiB5fG9d-24" value="" style="shape=singleArrow;direction=south;whiteSpace=wrap;html=1;rounded=0;sketch=0;" vertex="1" parent="m7pbJpnxdFMApj_nD5Fw-1">
          <mxGeometry x="300" y="470" width="20" height="30" as="geometry" />
        </mxCell>
        <mxCell id="wNLN2cfkmf7QuiB5fG9d-25" value="End Transaction" style="ellipse;whiteSpace=wrap;html=1;rounded=0;sketch=0;" vertex="1" parent="m7pbJpnxdFMApj_nD5Fw-1">
          <mxGeometry x="270" y="500" width="80" height="40" as="geometry" />
        </mxCell>
        <mxCell id="wNLN2cfkmf7QuiB5fG9d-26" value="Please collect your money" style="rounded=0;whiteSpace=wrap;html=1;sketch=0;" vertex="1" parent="m7pbJpnxdFMApj_nD5Fw-1">
          <mxGeometry x="540" y="500" width="120" height="60" as="geometry" />
        </mxCell>
        <mxCell id="wNLN2cfkmf7QuiB5fG9d-27" value="" style="shape=singleArrow;direction=south;whiteSpace=wrap;html=1;rounded=0;sketch=0;" vertex="1" parent="m7pbJpnxdFMApj_nD5Fw-1">
          <mxGeometry x="590" y="560" width="20" height="30" as="geometry" />
        </mxCell>
        <mxCell id="wNLN2cfkmf7QuiB5fG9d-28" value="Print Receipt" style="rounded=0;whiteSpace=wrap;html=1;sketch=0;" vertex="1" parent="m7pbJpnxdFMApj_nD5Fw-1">
          <mxGeometry x="540" y="590" width="120" height="60" as="geometry" />
        </mxCell>
        <mxCell id="wNLN2cfkmf7QuiB5fG9d-29" value="" style="shape=singleArrow;direction=south;whiteSpace=wrap;html=1;rounded=0;sketch=0;" vertex="1" parent="m7pbJpnxdFMApj_nD5Fw-1">
          <mxGeometry x="590" y="650" width="20" height="30" as="geometry" />
        </mxCell>
        <mxCell id="wNLN2cfkmf7QuiB5fG9d-30" value="End" style="ellipse;whiteSpace=wrap;html=1;rounded=0;sketch=0;" vertex="1" parent="m7pbJpnxdFMApj_nD5Fw-1">
          <mxGeometry x="570" y="680" width="65" height="30" as="geometry" />
        </mxCell>
      </root>
    </mxGraphModel>
  </diagram>
</mxfile>
